<?xml version="1.0" encoding="UTF-8" standalone="no"?>
<svg
   xmlns:dc="http://purl.org/dc/elements/1.1/"
   xmlns:cc="http://creativecommons.org/ns#"
   xmlns:rdf="http://www.w3.org/1999/02/22-rdf-syntax-ns#"
   xmlns:svg="http://www.w3.org/2000/svg"
   xmlns="http://www.w3.org/2000/svg"
   xmlns:sodipodi="http://sodipodi.sourceforge.net/DTD/sodipodi-0.dtd"
   xmlns:inkscape="http://www.inkscape.org/namespaces/inkscape"
   inkscape:version="1.0 (4035a4fb49, 2020-05-01)"
   sodipodi:docname="Plot.svg"
   xml:space="preserve"
   style="enable-background:new 0 0 40 40;"
   viewBox="0 0 40 40"
   y="0px"
   x="0px"
   id="Layer_1"
   version="1.1"><metadata
   id="metadata27"><rdf:RDF><cc:Work
       rdf:about=""><dc:format>image/svg+xml</dc:format><dc:type
         rdf:resource="http://purl.org/dc/dcmitype/StillImage" /><dc:title></dc:title></cc:Work></rdf:RDF></metadata><defs
   id="defs25" /><sodipodi:namedview
   inkscape:current-layer="Layer_1"
   inkscape:window-maximized="1"
   inkscape:window-y="-8"
   inkscape:window-x="-8"
   inkscape:cy="41.442438"
   inkscape:cx="70.953936"
   inkscape:zoom="7.5130096"
   showgrid="false"
   id="namedview23"
   inkscape:window-height="1017"
   inkscape:window-width="1920"
   inkscape:pageshadow="2"
   inkscape:pageopacity="0"
   guidetolerance="10"
   gridtolerance="10"
   objecttolerance="10"
   borderopacity="1"
   bordercolor="#666666"
   pagecolor="#ffffff" />
<g
   transform="translate(0.5,0.5)"
   id="g8">
	<path
   id="path2"
   d="M 4,37.5 C 2.621,37.5 1.5,36.378 1.5,35 V 4 C 1.5,2.622 2.621,1.5 4,1.5 h 31 c 1.379,0 2.5,1.122 2.5,2.5 v 31 c 0,1.378 -1.121,2.5 -2.5,2.5 z"
   style="fill:#e1ebf2" />
	<g
   id="g6">
		<path
   id="path4"
   d="m 35,2 c 1.103,0 2,0.897 2,2 v 31 c 0,1.103 -0.897,2 -2,2 H 4 C 2.897,37 2,36.103 2,35 V 4 C 2,2.897 2.897,2 4,2 H 35 M 35,1 H 4 C 2.343,1 1,2.343 1,4 v 31 c 0,1.657 1.343,3 3,3 h 31 c 1.657,0 3,-1.343 3,-3 V 4 C 38,2.343 36.657,1 35,1 Z"
   style="fill:#788b9c" />
	</g>
</g>
<g
   transform="translate(0.5,0.5)"
   id="g12">
	<rect
   id="rect10"
   height="35"
   width="1"
   style="fill:#b6c9d6"
   y="2"
   x="19" />
</g>
<g
   transform="translate(0.5,0.5)"
   id="g16">
	<rect
   id="rect14"
   height="1"
   width="35"
   style="fill:#b6c9d6"
   y="19"
   x="2" />
</g>
<g
   transform="translate(0.5,0.5)"
   id="g20">
	<path
   id="path18"
   d="m 2,34.5 c 9.8,0 9.101,-30 17.5,-30 8.401,0 7.839,30 17.5,30"
   style="fill:none;stroke:#c74343;stroke-miterlimit:10" />
</g>
</svg>
